<?xml version="1.0" encoding="UTF-8" standalone="no"?>
<!-- Generator: Adobe Illustrator 19.0.0, SVG Export Plug-In . SVG Version: 6.00 Build 0)  -->

<svg
   xmlns:dc="http://purl.org/dc/elements/1.1/"
   xmlns:cc="http://creativecommons.org/ns#"
   xmlns:rdf="http://www.w3.org/1999/02/22-rdf-syntax-ns#"
   xmlns:svg="http://www.w3.org/2000/svg"
   xmlns="http://www.w3.org/2000/svg"
   xmlns:sodipodi="http://sodipodi.sourceforge.net/DTD/sodipodi-0.dtd"
   xmlns:inkscape="http://www.inkscape.org/namespaces/inkscape"
   version="1.1"
   id="Layer_1"
   x="0px"
   y="0px"
   viewBox="0 0 512.001 512.001"
   style="enable-background:new 0 0 512.001 512.001;"
   xml:space="preserve"
   sodipodi:docname="bed.svg"
   inkscape:version="0.92.4 (5da689c313, 2019-01-14)"><metadata
   id="metadata1033"><rdf:RDF><cc:Work
       rdf:about=""><dc:format>image/svg+xml</dc:format><dc:type
         rdf:resource="http://purl.org/dc/dcmitype/StillImage" /><dc:title></dc:title></cc:Work></rdf:RDF></metadata><defs
   id="defs1031" /><sodipodi:namedview
   pagecolor="#ffffff"
   bordercolor="#666666"
   borderopacity="1"
   objecttolerance="10"
   gridtolerance="10"
   guidetolerance="10"
   inkscape:pageopacity="0"
   inkscape:pageshadow="2"
   inkscape:window-width="1366"
   inkscape:window-height="745"
   id="namedview1029"
   showgrid="false"
   inkscape:zoom="0.46093662"
   inkscape:cx="256.00049"
   inkscape:cy="256.00049"
   inkscape:window-x="-8"
   inkscape:window-y="-8"
   inkscape:window-maximized="1"
   inkscape:current-layer="Layer_1" />













<path
   inkscape:connector-curvature="0"
   style="fill:#9baaab;stroke-width:0.5214076"
   d="M 265.54173,504.80506 11.499947,250.76327 C 10.294974,249.5583 8.480475,249.19748 6.9063454,249.84977 5.331173,250.50152 4.304,252.03968 4.304,253.74416 v 254.04178 c 0,2.32861 1.8874956,4.21506 4.2150592,4.21506 H 262.56084 c 1.70501,0 3.2416,-1.02665 3.8944,-2.60234 0.6528,-1.57518 0.29199,-3.38811 -0.91351,-4.5936 z M 46.457199,469.8478 V 345.30855 L 171.42609,469.8478 Z"
   id="path940" /><path
   inkscape:connector-curvature="0"
   style="fill:#687f82;stroke-width:0.5214076"
   d="m 138.52162,377.7839 -29.68686,29.68687 62.59185,62.37703 H 46.457199 L 5.5392146,510.76631 c 0.7628194,0.76282 1.8165842,1.23469 2.980366,1.23469 H 262.56137 c 1.705,0 3.24159,-1.02665 3.89439,-2.60234 0.6528,-1.5757 0.29147,-3.38811 -0.91403,-4.59413 z"
   id="path942" /><g
   id="g956"
   transform="matrix(0.52140762,0,0,0.52140762,2.0598616,245.03978)">
	<path
   inkscape:connector-curvature="0"
   style="fill:#365558"
   d="m 77.066,461.338 c -4.465,0 -8.084,3.619 -8.084,8.084 V 512 H 85.15 v -42.578 c 0,-4.464 -3.619,-8.084 -8.084,-8.084 z"
   id="path944" />
	<path
   inkscape:connector-curvature="0"
   style="fill:#365558"
   d="m 141.741,461.338 c -4.465,0 -8.084,3.619 -8.084,8.084 V 512 h 16.169 v -42.578 c 0,-4.464 -3.62,-8.084 -8.085,-8.084 z"
   id="path946" />
	<path
   inkscape:connector-curvature="0"
   style="fill:#365558"
   d="m 206.417,461.338 c -4.465,0 -8.084,3.619 -8.084,8.084 V 512 h 16.169 v -42.578 c 0,-4.464 -3.62,-8.084 -8.085,-8.084 z"
   id="path948" />
	<path
   inkscape:connector-curvature="0"
   style="fill:#365558"
   d="m 271.093,461.338 c -4.465,0 -8.084,3.619 -8.084,8.084 V 512 h 16.169 v -42.578 c -10e-4,-4.464 -3.621,-8.084 -8.085,-8.084 z"
   id="path950" />
	<path
   inkscape:connector-curvature="0"
   style="fill:#365558"
   d="m 335.768,461.338 c -4.465,0 -8.084,3.619 -8.084,8.084 V 512 h 16.169 v -42.578 c 0,-4.464 -3.62,-8.084 -8.085,-8.084 z"
   id="path952" />
	<path
   inkscape:connector-curvature="0"
   style="fill:#365558"
   d="m 400.444,461.338 c -4.465,0 -8.084,3.619 -8.084,8.084 V 512 h 16.169 v -42.578 c -10e-4,-4.464 -3.62,-8.084 -8.085,-8.084 z"
   id="path954" />
</g><g
   id="g962"
   transform="matrix(0.52140762,0,0,0.52140762,2.0598616,245.03978)">
	<path
   inkscape:connector-curvature="0"
   style="fill:#ffffff"
   d="m 176.234,231.74 c -2.069,0 -4.138,-0.789 -5.716,-2.367 L 49.79,108.645 c -3.157,-3.158 -3.157,-8.276 0,-11.434 3.157,-3.156 8.276,-3.156 11.432,0 L 181.95,217.939 c 3.157,3.158 3.157,8.276 0,11.434 -1.578,1.577 -3.646,2.367 -5.716,2.367 z"
   id="path958" />
	<path
   inkscape:connector-curvature="0"
   style="fill:#ffffff"
   d="m 219.351,279.168 c -2.069,0 -4.138,-0.789 -5.716,-2.367 l -21.559,-21.559 c -3.157,-3.158 -3.157,-8.276 0,-11.434 3.157,-3.156 8.276,-3.156 11.432,0 l 21.559,21.559 c 3.157,3.158 3.157,8.276 0,11.434 -1.578,1.578 -3.646,2.367 -5.716,2.367 z"
   id="path960" />
</g><g
   id="g1687"
   transform="translate(-19.525461,-23.864452)"><path
     id="path964"
     d="m 233.74838,356.93907 -97.29623,-97.29623 c -0.79045,-0.79045 -1.86246,-1.23417 -2.98036,-1.23417 -1.1179,0 -2.19044,0.44424 -2.98037,1.23417 l -44.511002,44.51101 c -0.790975,0.79097 -1.234693,1.86247 -1.234693,2.98088 0,1.1179 0.444239,2.18992 1.234693,2.98089 l 97.296222,97.29571 c 0.82279,0.82278 1.9021,1.23417 2.98037,1.23417 1.07827,0 2.15758,-0.41139 2.98037,-1.23417 l 44.511,-44.51049 c 0.79098,-0.79097 1.23469,-1.86246 1.23469,-2.98088 0,-1.11842 -0.44371,-2.18992 -1.23469,-2.98089 z"
     style="fill:#fd6a33;stroke-width:0.5214076"
     inkscape:connector-curvature="0" /><path
     id="path966"
     d="m 108.42545,281.70829 -22.445553,22.44556 c -0.790976,0.79097 -1.234694,1.86247 -1.234694,2.98088 0,1.1179 0.44424,2.18992 1.234694,2.98089 l 97.296223,97.29571 c 0.82278,0.82278 1.9021,1.23417 2.98037,1.23417 1.07879,0 2.15758,-0.41139 2.98036,-1.23417 l 22.44556,-22.44556 z"
     style="fill:#f0353d;stroke-width:0.5214076"
     inkscape:connector-curvature="0" /><path
     id="path968"
     d="m 219.44096,371.24597 -97.29623,-97.2957 c -1.64608,-1.64556 -4.31517,-1.64556 -5.96073,0 l -15.89668,15.89667 c -0.790974,0.79098 -1.234692,1.86247 -1.234692,2.98089 0,1.1179 0.44424,2.18991 1.234692,2.98089 l 97.29623,97.2957 c 0.82278,0.82278 1.90209,1.23418 2.98036,1.23418 1.0788,0 2.15759,-0.4114 2.98037,-1.23418 l 15.89668,-15.89667 c 0.79097,-0.79098 1.23469,-1.86247 1.23469,-2.98089 5.2e-4,-1.11842 -0.44372,-2.19043 -1.23469,-2.98089 z"
     style="fill:#4acfd9;stroke-width:0.5214076"
     inkscape:connector-curvature="0" /><path
     id="path970"
     d="m 108.42545,281.70829 -8.13813,8.13813 c -0.790974,0.79098 -1.234692,1.86247 -1.234692,2.98089 0,1.1179 0.44424,2.18991 1.234692,2.98089 l 97.29623,97.2957 c 0.82278,0.82278 1.90209,1.23417 2.98036,1.23417 1.0788,0 2.15759,-0.41139 2.98037,-1.23417 l 8.13813,-8.13813 z"
     style="fill:#0295aa;stroke-width:0.5214076"
     inkscape:connector-curvature="0" /><g
     transform="matrix(0.52140762,0,0,0.52140762,2.0598616,245.03978)"
     id="g976">
	<path
   id="path972"
   d="m 139.607,6.665 c -1.911,1.911 -2.741,4.651 -2.211,7.302 l 21.342,106.709 94.88,-94.88 L 146.909,4.454 c -2.651,-0.531 -5.391,0.299 -7.302,2.211 z"
   style="fill:#ffd1a9"
   inkscape:connector-curvature="0" />
	<path
   id="path974"
   d="m 139.994,6.324 c -0.129,0.113 -0.264,0.219 -0.387,0.342 -1.911,1.911 -2.741,4.651 -2.211,7.302 l 21.342,106.709 47.805,-47.805 z"
   style="fill:#ffd1a9"
   inkscape:connector-curvature="0" />
</g><path
     id="path978"
     d="m 74.852015,248.51496 c -0.99641,0.99641 -1.429178,2.42507 -1.152832,3.80732 l 4.768794,23.84553 24.036373,-24.03689 -23.845016,-4.76879 c -1.382252,-0.27687 -2.810909,0.1559 -3.807319,1.15283 z"
     style="fill:#687f82;stroke-width:0.5214076"
     inkscape:connector-curvature="0" /><path
     id="path980"
     d="m 75.0538,248.33716 c -0.06726,0.0589 -0.137652,0.11419 -0.201785,0.17832 -0.99641,0.99641 -1.429178,2.42507 -1.152832,3.80732 l 4.768794,23.84554 12.208238,-12.20876 z"
     style="fill:#365558;stroke-width:0.5214076"
     inkscape:connector-curvature="0" /><path
     id="path982"
     d="m 233.74838,356.93907 -50.47278,50.47278 31.79387,31.79335 c 0.82279,0.82278 1.9021,1.23417 2.98037,1.23417 1.07827,0 2.15758,-0.41139 2.98037,-1.23417 l 44.511,-44.51048 c 0.79098,-0.79098 1.23469,-1.86299 1.23469,-2.98089 0,-1.1179 -0.44424,-2.18991 -1.23469,-2.98089 z"
     style="fill:#cdd4d5;stroke-width:0.5214076"
     inkscape:connector-curvature="0" /><path
     id="path984"
     d="m 208.70204,381.98541 -25.42644,25.42644 31.79387,31.79335 c 0.82279,0.82278 1.9021,1.23417 2.98037,1.23417 1.07827,0 2.15758,-0.41139 2.98037,-1.23417 l 22.44555,-22.44556 z"
     style="fill:#9baaab;stroke-width:0.5214076"
     inkscape:connector-curvature="0" /><path
     id="path986"
     d="m 240.07983,397.34451 c -1.07879,0 -2.15758,-0.41139 -2.98036,-1.23417 l -11.24103,-11.24103 c -1.64608,-1.6466 -1.64608,-4.31517 0,-5.96177 1.64608,-1.64557 4.31517,-1.64557 5.96073,0 l 11.24103,11.24102 c 1.64608,1.64661 1.64608,4.31517 0,5.96178 -0.82278,0.82278 -1.90105,1.23417 -2.98037,1.23417 z"
     style="fill:#ffffff;stroke-width:0.5214076"
     inkscape:connector-curvature="0" /></g>




<g
   id="g1649"
   transform="translate(-0.50848699,-13.355965)"><path
     inkscape:connector-curvature="0"
     id="path988"
     d="m 332.8674,464.22949 -55.67234,-55.67295 c -7.03505,-7.03384 -18.48116,-7.03322 -25.51681,0 l -16.70201,16.70201 c -7.03505,7.03566 -7.03505,18.48177 0,25.51743 l 55.67173,55.67295 c 0.92275,0.92275 2.17418,1.44073 3.47918,1.44073 1.305,0 2.55704,-0.51859 3.47918,-1.44073 l 35.25925,-35.25925 c 1.92463,-1.9228 1.92463,-5.038 0.002,-6.96019 z"
     style="fill:#4acfd9;stroke-width:0.60867369" /><path
     inkscape:connector-curvature="0"
     id="path990"
     d="m 294.12897,507.88966 c 1.305,0 2.55704,-0.51859 3.47918,-1.44073 l 35.25925,-35.25925 c 1.92159,-1.92219 1.92159,-5.03739 0,-6.95958 l -37.11448,-37.11449 -42.21822,42.21822 37.11449,37.1151 c 0.92336,0.92214 2.17479,1.44073 3.47978,1.44073 z"
     style="fill:#ffd1a9;stroke-width:0.60867369" /><path
     inkscape:connector-curvature="0"
     id="path992"
     d="m 243.47576,416.75964 -8.49831,8.49831 c -7.03505,7.03565 -7.03505,18.48176 0,25.51742 l 55.67174,55.67295 c 0.92275,0.92275 2.17418,1.44073 3.47918,1.44073 1.30499,0 2.55704,-0.51859 3.47918,-1.44073 l 17.77814,-17.77814 z"
     style="fill:#0295aa;stroke-width:0.60867369" /><path
     inkscape:connector-curvature="0"
     id="path994"
     d="m 274.79141,448.0759 -21.25732,21.25732 37.11449,37.1151 c 0.92275,0.92275 2.17418,1.44073 3.47918,1.44073 1.305,0 2.55704,-0.51859 3.47918,-1.44073 l 17.77814,-17.77814 z"
     style="fill:#ff8c29;stroke-width:0.60867369" /><path
     inkscape:connector-curvature="0"
     id="path996"
     d="m 307.11929,472.6298 c -1.25934,0 -2.51869,-0.48024 -3.47918,-1.44073 l -14.84555,-14.84616 c -1.92158,-1.92219 -1.92158,-5.03738 0,-6.95958 1.92158,-1.92097 5.03739,-1.92097 6.95836,0 l 14.84555,14.84616 c 1.92159,1.92219 1.92159,5.03739 0,6.95958 -0.96049,0.96049 -2.21983,1.44073 -3.47918,1.44073 z"
     style="fill:#ffffff;stroke-width:0.60867369" /></g>
<g
   id="g998">
</g>
<g
   id="g1000">
</g>
<g
   id="g1002">
</g>
<g
   id="g1004">
</g>
<g
   id="g1006">
</g>
<g
   id="g1008">
</g>
<g
   id="g1010">
</g>
<g
   id="g1012">
</g>
<g
   id="g1014">
</g>
<g
   id="g1016">
</g>
<g
   id="g1018">
</g>
<g
   id="g1020">
</g>
<g
   id="g1022">
</g>
<g
   id="g1024">
</g>
<g
   id="g1026">
</g>
</svg>