<?xml version="1.0" encoding="UTF-8" standalone="no"?>
<!-- Generator: Adobe Illustrator 19.0.0, SVG Export Plug-In . SVG Version: 6.00 Build 0)  -->

<svg
   xmlns:dc="http://purl.org/dc/elements/1.1/"
   xmlns:cc="http://creativecommons.org/ns#"
   xmlns:rdf="http://www.w3.org/1999/02/22-rdf-syntax-ns#"
   xmlns:svg="http://www.w3.org/2000/svg"
   xmlns="http://www.w3.org/2000/svg"
   xmlns:sodipodi="http://sodipodi.sourceforge.net/DTD/sodipodi-0.dtd"
   xmlns:inkscape="http://www.inkscape.org/namespaces/inkscape"
   version="1.1"
   id="Layer_1"
   x="0px"
   y="0px"
   viewBox="0 0 512 512"
   style="enable-background:new 0 0 512 512;"
   xml:space="preserve"
   sodipodi:docname="pharmacy.svg"
   inkscape:version="0.92.4 (5da689c313, 2019-01-14)"><metadata
   id="metadata1706"><rdf:RDF><cc:Work
       rdf:about=""><dc:format>image/svg+xml</dc:format><dc:type
         rdf:resource="http://purl.org/dc/dcmitype/StillImage" /><dc:title /></cc:Work></rdf:RDF></metadata><defs
   id="defs1704" /><sodipodi:namedview
   pagecolor="#ffffff"
   bordercolor="#666666"
   borderopacity="1"
   objecttolerance="10"
   gridtolerance="10"
   guidetolerance="10"
   inkscape:pageopacity="0"
   inkscape:pageshadow="2"
   inkscape:window-width="1366"
   inkscape:window-height="745"
   id="namedview1702"
   showgrid="false"
   inkscape:zoom="0.73721684"
   inkscape:cx="35.576386"
   inkscape:cy="202.90017"
   inkscape:window-x="-8"
   inkscape:window-y="-8"
   inkscape:window-maximized="1"
   inkscape:current-layer="g826" />















<g
   id="g1671">
</g>
<g
   id="g1673">
</g>
<g
   id="g1675">
</g>
<g
   id="g1677">
</g>
<g
   id="g1679">
</g>
<g
   id="g1681">
</g>
<g
   id="g1683">
</g>
<g
   id="g1685">
</g>
<g
   id="g1687">
</g>
<g
   id="g1689">
</g>
<g
   id="g1691">
</g>
<g
   id="g1693">
</g>
<g
   id="g1695">
</g>
<g
   id="g1697">
</g>
<g
   id="g1699">
</g>
<g
   id="g826"
   transform="matrix(2.6817391,0,0,2.6817391,-13.63574,-68.04525)"><path
     style="fill:#cfebf2;stroke-width:0.26458335"
     d="M 90.619792,215.81401 C 86.21445,215.4812 82.866177,214.92932 77.870164,213.71255 49.371048,206.77163 25.441567,186.70007 13.543762,159.75685 10.500246,152.86464 7.7216435,143.61309 6.7892612,137.26726 5.4427123,128.1026 5.496711,113.30152 6.9092245,104.38524 8.8932979,91.861072 14.28842,78.533477 21.981279,67.152679 31.053048,53.731925 43.926177,42.437992 58.471609,35.138752 c 7.985363,-4.007243 18.141837,-7.311922 26.327349,-8.566305 6.111799,-0.936599 17.003982,-1.236542 24.870832,-0.68488 11.09743,0.778205 21.76298,3.722061 32.54375,8.982573 22.99526,11.220609 40.77628,31.594726 48.64875,55.743437 3.29297,10.101163 4.40405,17.665913 4.40405,29.984933 0,16.48623 -2.50976,27.94966 -9.13483,41.72376 -9.71024,20.18841 -26.2928,36.45316 -46.59169,45.69876 -8.81905,4.01684 -19.25374,6.95796 -26.95961,7.59884 -4.37845,0.36415 -18.103952,0.48549 -21.960418,0.19414 z M 76.117061,178.39656 c 4.819229,-0.71558 9.165624,-2.42481 13.312106,-5.235 1.408789,-0.95478 6.149969,-5.49085 16.345563,-15.63843 7.89866,-7.86146 14.32803,-14.42762 14.2875,-14.59146 -0.0996,-0.40256 -42.834128,-43.453361 -43.320043,-43.640633 -0.528963,-0.203864 -27.514948,26.758913 -29.799765,29.774143 -2.148533,2.83537 -3.55822,5.53219 -4.719863,9.02939 -1.248764,3.75947 -1.574334,6.34502 -1.406935,11.17329 0.171289,4.94042 0.901113,7.96611 2.944866,12.20878 5.863143,12.17141 18.794823,18.93365 32.356571,16.91992 z m 60.430429,-51.62675 c 6.19701,-6.23187 11.8639,-12.05895 12.59309,-12.94907 10.18546,-12.43327 9.42832,-30.627521 -1.74316,-41.888548 -5.86444,-5.911448 -13.13348,-8.857951 -21.85263,-8.857951 -6.89571,0 -12.70747,1.791814 -18.09484,5.57879 -1.78014,1.251326 -26.48745,25.63359 -26.48745,26.138989 0,0.150154 9.785067,10.05861 21.74459,22.0188 16.99912,17.00005 21.835,21.69602 22.15886,21.51773 0.22784,-0.12543 5.48454,-5.32687 11.68154,-11.55874 z"
     id="path840"
     inkscape:connector-curvature="0" /><path
     style="fill:#a0d9e6;stroke-width:0.26458335"
     d="M 91.016667,215.706 C 73.480771,214.17357 55.641679,206.88156 41.142707,195.31925 37.400785,192.33522 29.598706,184.53314 26.614681,180.79122 17.391781,169.22584 10.86262,155.55547 7.8133067,141.42602 5.9191361,132.6491 5.3590251,122.2043 6.217649,111.67061 7.7630548,92.711427 15.901037,73.610695 28.848424,58.553721 c 2.884802,-3.35484 9.40483,-9.660884 12.691158,-12.274644 12.541843,-9.975075 27.028702,-16.592321 42.333335,-19.336841 9.241205,-1.65719 23.671753,-1.717815 32.824683,-0.137902 10.42404,1.799323 21.44103,5.750999 30.54643,10.95668 17.24822,9.861035 31.33289,25.162608 39.41919,42.824987 7.10641,15.522059 9.70178,31.148489 8.20562,49.405219 -2.42303,29.5668 -19.9745,57.33535 -46.07903,72.9026 -9.88426,5.8944 -20.47432,9.88364 -31.57939,11.89582 -6.86438,1.2438 -17.992151,1.63309 -26.193753,0.91636 z M 75.009375,178.79751 c 5.061273,-0.57297 9.965677,-2.38313 14.310288,-5.28176 1.594737,-1.06398 5.547064,-4.83957 16.579817,-15.83841 7.96727,-7.94278 14.48594,-14.62377 14.48594,-14.84666 0,-0.44303 -43.355073,-43.928001 -43.796779,-43.928001 -0.149392,0 -6.886361,6.637731 -14.971043,14.750521 -15.050006,15.10232 -15.908688,16.06525 -17.937933,20.11561 -3.539993,7.0658 -4.200798,16.35686 -1.7072,24.00366 0.814779,2.49858 2.3915,5.72283 3.881591,7.9375 1.389229,2.06476 4.88561,5.66073 7.06261,7.26378 6.240738,4.5954 14.263082,6.71014 22.092709,5.82376 z M 137.0869,126.48549 c 10.22139,-10.26821 12.58791,-12.78459 13.93211,-14.81432 2.69385,-4.06771 4.313,-8.02536 5.11558,-12.503907 0.50859,-2.838019 0.43338,-8.612661 -0.14818,-11.377084 -2.93123,-13.933588 -13.4877,-23.47241 -27.56343,-24.90629 -7.05526,-0.718714 -15.12058,1.395892 -20.96559,5.496857 -1.00557,0.705527 -7.15813,6.614458 -14.393073,13.823129 L 80.427592,94.794716 102.45643,116.82474 c 12.11586,12.11651 22.09381,22.03002 22.17322,22.03002 0.0794,0 5.68517,-5.56617 12.45725,-12.36927 z"
     id="path838"
     inkscape:connector-curvature="0" /><path
     style="fill:#68c7dd;stroke-width:0.26458335"
     d="M 93.133333,215.84357 C 72.826165,213.95405 54.928497,206.61508 39.855229,193.99679 36.098738,190.85212 29.830829,184.5042 26.946729,180.92351 15.38071,166.564 8.5019908,149.94891 6.2986924,131.04955 c -0.44274,-3.79771 -0.44274,-16.04603 0,-19.84375 C 9.064324,87.482895 19.29909,67.000208 36.380207,51.004114 46.710589,41.329937 60.620028,33.368475 73.951041,29.499383 c 16.69441,-4.84526 33.833069,-5.132001 50.299749,-0.841551 35.36084,9.213385 62.1827,37.746553 69.26512,73.684428 2.43995,12.38089 2.25323,26.70295 -0.5089,39.03438 -4.97099,22.19277 -17.77275,42.12192 -35.71222,55.59501 -13.79843,10.36304 -29.27503,16.53408 -46.69896,18.62042 -3.11112,0.37253 -14.412478,0.53529 -17.462497,0.2515 z m -16.66875,-37.07443 c 2.78121,-0.39886 6.041202,-1.38736 8.594805,-2.60615 4.700878,-2.24363 5.486389,-2.93127 20.972382,-18.35936 8.04003,-8.00996 14.61823,-14.74632 14.61823,-14.96968 0,-0.44301 -43.616399,-44.195854 -44.058025,-44.195854 -0.520827,0 -29.399101,29.208574 -30.606191,30.956254 -2.412339,3.49269 -3.723942,6.38308 -4.913731,10.82843 -0.606832,2.26728 -0.678659,3.03267 -0.68462,7.29552 -0.0049,3.53045 0.107712,5.25706 0.435441,6.6742 1.521269,6.57816 4.466907,11.83706 9.095031,16.23751 7.102623,6.75322 16.37887,9.59729 26.546678,8.13913 z m 60.620857,-51.99949 c 7.05594,-7.08849 12.43422,-12.7151 13.36873,-13.986 7.13307,-9.70077 8.27272,-22.072997 3.0212,-32.798679 -4.54794,-9.288682 -12.14495,-15.042261 -22.37433,-16.945136 -3.57051,-0.664192 -9.93938,-0.429554 -13.44432,0.495308 -3.26007,0.860245 -6.16612,2.110239 -9.12265,3.923982 -2.01356,1.235258 -3.92912,3.02859 -15.202299,14.232281 -7.094141,7.050413 -12.898438,12.943743 -12.898438,13.096285 0,0.152541 9.904132,10.182009 22.009177,22.287709 17.20957,17.2105 22.09952,21.9606 22.42344,21.78215 0.22784,-0.12552 5.72661,-5.56508 12.21949,-12.0879 z"
     id="path836"
     inkscape:connector-curvature="0" /><path
     style="fill:#52b5cc;stroke-width:0.26458335"
     d="M 95.514583,215.95397 C 92.255557,215.66875 86.805156,214.9395 83.608333,214.36096 47.637929,207.8512 18.336432,180.69771 9.1241966,145.33705 8.0222966,141.10747 7.3395481,137.55159 6.5783783,132.07795 5.7367471,126.0257 5.7306938,116.16374 6.5649172,110.14747 8.2408489,98.060955 10.734287,89.537318 15.480995,79.668506 28.371288,52.868479 52.949604,33.598781 81.709871,27.744262 95.792626,24.877538 108.0105,25.00659 121.70833,28.166748 c 32.72672,7.550217 59.25538,32.148077 69.15455,64.121348 2.97836,9.619784 4.24927,18.087114 4.24927,28.310414 0,6.99393 -0.29329,10.37618 -1.46836,16.93334 -4.73919,26.44583 -20.5352,49.80805 -43.33841,64.09732 -14.40372,9.02586 -31.35216,14.07132 -48.17621,14.3418 -2.98318,0.048 -5.959743,0.0403 -6.614587,-0.017 z M 78.014515,178.69915 c 4.450138,-0.97428 8.90492,-2.96619 12.365485,-5.5291 1.470535,-1.08908 30.23138,-29.69958 30.46859,-30.30931 0.0365,-0.0937 -9.93382,-10.16999 -22.156189,-22.3917 L 76.469922,98.247743 62.556241,112.13511 c -7.652522,7.63805 -14.65457,14.80554 -15.560103,15.92775 -3.108902,3.85282 -5.249908,8.40449 -6.320817,13.43774 -0.700109,3.2905 -0.747959,8.93908 -0.103566,12.22634 2.582172,13.17254 12.475864,22.88968 25.668426,25.21038 2.740578,0.48209 9.069162,0.35408 11.774334,-0.23817 z m 59.350115,-52.21366 c 10.38607,-10.41319 12.85575,-13.02915 14.05058,-14.88281 2.59183,-4.02097 3.92044,-7.19951 4.86614,-11.641667 0.65617,-3.082161 0.64527,-9.313646 -0.0217,-12.435417 -1.3165,-6.1614 -4.46992,-12.003429 -8.78689,-16.278582 -4.12132,-4.081383 -9.45846,-6.874375 -15.71021,-8.221345 -3.25835,-0.702027 -9.59254,-0.656683 -12.83229,0.09186 -4.76907,1.101892 -9.01062,3.020396 -12.5335,5.669047 -1.71606,1.290196 -26.22797,25.594154 -26.22797,26.005449 0,0.35597 43.9675,44.327325 44.32344,44.327325 0.14933,0 5.94193,-5.68524 12.87244,-12.63386 z"
     id="path834"
     inkscape:connector-curvature="0" /><path
     style="fill:#30b2d0;stroke-width:0.26458335"
     d="m 94.853125,215.84227 c -10.264672,-0.87918 -20.437171,-3.21004 -29.36875,-6.72934 -2.883022,-1.136 -9.621632,-4.43473 -12.4873,-6.11286 C 41.327458,196.16633 30.231814,185.85484 22.693482,174.8381 13.908807,161.99991 8.6152248,147.81091 6.6037835,131.71101 5.7576533,124.93845 5.648585,116.57382 6.3506307,112.2963 6.4968352,111.40549 6.8512375,109.03713 7.1381914,107.03329 8.7130452,96.035837 12.445841,84.89967 17.861463,75.04221 19.902073,71.327913 24.325644,64.730287 27.142675,61.199554 30.137966,57.4454 37.942053,49.644541 41.671874,46.676363 55.11071,35.981791 71.408361,28.91176 87.444792,26.819761 c 1.74625,-0.227803 3.829843,-0.529727 4.630208,-0.670941 3.966988,-0.699924 12.07408,-0.587679 18.91771,0.26192 15.74077,1.954131 29.80622,7.158768 42.46562,15.71354 9.22979,6.237159 18.67177,15.615625 24.93152,24.763816 8.7519,12.790286 14.04278,26.936298 16.08088,42.994794 1.13898,8.97427 0.90973,16.5121 -0.81551,26.81311 -2.62228,15.65717 -9.62356,31.21977 -19.71845,43.83064 -3.19281,3.98856 -10.65792,11.41418 -14.6576,14.58008 -15.58202,12.33372 -32.8855,19.04973 -53.44584,20.74398 -3.16807,0.26106 -7.876044,0.25745 -10.980205,-0.008 z m -17.825342,-36.8934 c 2.733844,-0.47674 5.84222,-1.47154 8.340498,-2.66929 4.393446,-2.10636 5.341961,-2.94304 20.795779,-18.34392 8.11279,-8.085 14.75052,-14.88176 14.75052,-15.10392 0,-0.44149 -43.882368,-44.458227 -44.322515,-44.458227 -0.550051,0 -29.939732,29.744777 -31.087468,31.463077 -3.919086,5.86735 -5.755085,12.4109 -5.462699,19.46921 0.487495,11.76841 7.154164,21.941 17.682081,26.98087 2.473039,1.18388 6.074227,2.34791 8.554146,2.76499 2.220812,0.3735 8.354745,0.31485 10.749658,-0.10279 z m 60.313477,-52.19879 c 12.92513,-12.98817 14.13504,-14.36772 16.1854,-18.45469 2.36329,-4.71073 3.43766,-9.26856 3.43021,-14.552086 -0.0189,-13.406927 -8.19059,-25.127558 -20.63463,-29.596154 -7.8998,-2.836783 -17.54794,-2.266333 -25.06495,1.481976 -3.91076,1.95008 -5.05333,2.957931 -18.190102,16.04545 -7.094141,7.06754 -12.898438,13.032428 -12.898438,13.255308 0,0.44173 43.88978,44.454046 44.33028,44.454046 0.14833,0 5.92734,-5.68524 12.84223,-12.63385 z"
     id="path832"
     inkscape:connector-curvature="0" /><path
     style="fill:#005dfb;stroke-width:0.26458335;fill-opacity:1"
     d="m 96.045578,215.92964 c -1.711052,-0.07 -2.385785,-0.1823 -2.116666,-0.35244 0.281826,-0.17817 0.05067,-0.25091 -0.806569,-0.2538 -1.860495,-0.006 -7.130445,-0.74975 -11.389128,-1.60677 -8.168584,-1.64384 -15.570089,-4.23034 -23.392591,-8.1747 -6.013894,-3.0324 -9.244375,-5.02316 -14.24532,-8.77859 C 36.204132,190.83751 29.579,184.06705 23.753086,175.97491 18.035177,168.03278 12.909373,157.44999 10.058703,147.70134 8.3414493,141.82872 6.622673,132.41293 6.6105303,128.81159 c -0.00248,-0.73663 -0.088732,-1.06811 -0.2228796,-0.85661 -0.3309059,0.52172 -0.5874387,-6.31369 -0.3908172,-10.41346 0.094594,-1.97238 0.2541838,-3.45316 0.354644,-3.29061 0.1004603,0.16254 0.2630232,-0.84779 0.361251,-2.2452 0.098228,-1.3974 0.4841873,-4.3517 0.8576878,-6.56511 C 13.858127,68.178887 41.308167,38.229183 77.655208,28.973724 c 5.482069,-1.395961 12.488212,-2.560954 15.461303,-2.57093 0.740325,-0.0025 1.073886,-0.08876 0.862208,-0.223019 -0.515971,-0.327256 6.159221,-0.581712 10.191511,-0.388496 1.92295,0.09214 3.44482,0.250782 3.38194,0.352533 -0.0629,0.101751 0.92392,0.258699 2.19291,0.348775 3.23639,0.229725 9.59526,1.341413 13.81534,2.415261 13.47873,3.429825 25.2241,9.316186 36.38021,18.232472 3.40762,2.723473 11.07595,10.392527 13.79333,13.794651 8.90215,11.145324 14.82718,22.98545 18.24141,36.45222 1.09411,4.315499 2.12775,10.218339 2.3842,13.615529 0.10119,1.34037 0.26807,2.38507 0.37086,2.32155 0.31181,-0.19271 0.55112,7.03372 0.36326,10.96911 -0.097,2.03218 -0.2773,3.6325 -0.40066,3.55627 -0.12335,-0.0762 -0.22428,0.33856 -0.22428,0.92178 0,1.61953 -0.73657,6.92288 -1.47395,10.6125 -7.46924,37.37372 -37.04575,67.10113 -74.06459,74.44247 -3.92122,0.77763 -8.92243,1.49295 -10.43809,1.49295 -0.56496,0 -1.06688,0.10635 -1.11538,0.23633 -0.10253,0.27472 -7.658893,0.5241 -11.331162,0.37396 z M 76.642283,179.20489 c 4.554347,-0.73866 8.762158,-2.40041 12.919175,-5.10204 1.349124,-0.87679 5.893718,-5.23145 16.734892,-16.03549 8.18555,-8.15751 14.88282,-15.01357 14.88282,-15.23569 0,-0.44142 -44.146984,-44.722741 -44.587063,-44.722741 -0.148791,0 -7.006238,6.756801 -15.238773,15.015101 -15.470203,15.51864 -16.167103,16.30229 -18.294056,20.57136 -3.38649,6.79711 -4.19335,15.06506 -2.196357,22.50617 2.431431,9.05989 8.687292,16.54183 17.110208,20.46361 5.632968,2.62276 12.444161,3.54934 18.669154,2.53972 z m 60.713947,-52.19023 c 8.05057,-8.08433 12.79825,-13.0567 13.70507,-14.35365 6.09852,-8.72226 7.67233,-19.184437 4.37136,-29.059373 -3.60588,-10.78711 -11.99362,-18.248008 -23.44854,-20.857495 -2.70535,-0.616292 -10.17331,-0.616292 -12.87866,0 -4.2718,0.973137 -7.93001,2.521929 -11.55233,4.890952 -1.31523,0.860166 -5.59092,4.932201 -14.750526,14.047946 -7.094141,7.060171 -12.902502,13.019167 -12.907468,13.242219 -0.01151,0.516774 44.187054,44.430211 44.735104,44.446521 0.2246,0.007 5.9513,-5.55402 12.72599,-12.35712 z"
     id="path830"
     inkscape:connector-curvature="0" /><path
     style="fill:#0000d1;stroke-width:0.26458335;fill-opacity:1"
     d="m 100.27708,190.12625 v -26.00629 l 10.45105,-10.44853 c 5.74807,-5.74669 10.45104,-10.62825 10.45104,-10.84792 0,-0.21966 -4.70297,-5.10122 -10.45104,-10.84791 l -10.45105,-10.44853 v -2.84553 c 0,-1.56504 0.0898,-2.84553 0.19955,-2.84553 0.10976,0 5.49683,5.29828 11.97129,11.77396 6.47445,6.47568 11.95599,11.77396 12.18121,11.77396 0.66343,0 24.83225,-24.43467 26.43217,-26.72292 6.09852,-8.72226 7.67233,-19.184437 4.37136,-29.059373 -3.60588,-10.78711 -11.99362,-18.248008 -23.44854,-20.857495 -2.70535,-0.616292 -10.17331,-0.616292 -12.87866,0 -6.52479,1.486381 -11.98206,4.500491 -16.57232,9.153083 -1.01475,1.02852 -1.93748,1.870038 -2.05052,1.870038 -0.11305,0 -0.20554,-10.852158 -0.20554,-24.115908 V 25.535448 l 2.0243,0.171116 c 1.11336,0.09411 2.78726,0.171115 3.71978,0.171115 0.93252,0 1.63275,0.101506 1.55608,0.225567 -0.0767,0.124062 0.89885,0.299265 2.16784,0.389341 8.1853,0.581009 19.97234,3.696271 28.89659,7.63724 6.93614,3.063018 14.96383,7.953142 21.03437,12.813245 3.7751,3.022354 11.3014,10.550313 14.25336,14.256482 6.84765,8.59721 12.24096,18.36106 15.72467,28.46737 2.32166,6.735178 4.27099,15.572806 4.70545,21.332946 0.10121,1.34194 0.26812,2.38792 0.37091,2.3244 0.10278,-0.0635 0.26625,1.54719 0.36326,3.57937 0.18786,3.9354 -0.0515,11.16183 -0.36326,10.96912 -0.10279,-0.0635 -0.26967,0.98117 -0.37086,2.32155 -0.72718,9.63281 -4.1286,21.64528 -9.00766,31.81149 -11.62339,24.219 -33.19177,42.49012 -59.01337,49.99172 -5.69933,1.65575 -14.65029,3.32183 -17.84642,3.32183 -0.56496,0 -1.06688,0.10145 -1.11538,0.22544 -0.0485,0.124 -1.66578,0.30697 -3.59393,0.4066 l -3.50573,0.18115 z"
     id="path828"
     inkscape:connector-curvature="0" /></g></svg>