<?xml version="1.0" encoding="UTF-8" standalone="no"?>
<!-- Generator: Adobe Illustrator 19.0.0, SVG Export Plug-In . SVG Version: 6.00 Build 0)  -->

<svg
   xmlns:dc="http://purl.org/dc/elements/1.1/"
   xmlns:cc="http://creativecommons.org/ns#"
   xmlns:rdf="http://www.w3.org/1999/02/22-rdf-syntax-ns#"
   xmlns:svg="http://www.w3.org/2000/svg"
   xmlns="http://www.w3.org/2000/svg"
   xmlns:sodipodi="http://sodipodi.sourceforge.net/DTD/sodipodi-0.dtd"
   xmlns:inkscape="http://www.inkscape.org/namespaces/inkscape"
   version="1.1"
   id="Layer_1"
   x="0px"
   y="0px"
   viewBox="0 0 512 512"
   style="enable-background:new 0 0 512 512;"
   xml:space="preserve"
   sodipodi:docname="training.svg"
   inkscape:version="0.92.4 (5da689c313, 2019-01-14)"><metadata
   id="metadata1706"><rdf:RDF><cc:Work
       rdf:about=""><dc:format>image/svg+xml</dc:format><dc:type
         rdf:resource="http://purl.org/dc/dcmitype/StillImage" /><dc:title /></cc:Work></rdf:RDF></metadata><defs
   id="defs1704" /><sodipodi:namedview
   pagecolor="#ffffff"
   bordercolor="#666666"
   borderopacity="1"
   objecttolerance="10"
   gridtolerance="10"
   guidetolerance="10"
   inkscape:pageopacity="0"
   inkscape:pageshadow="2"
   inkscape:window-width="1366"
   inkscape:window-height="745"
   id="namedview1702"
   showgrid="false"
   inkscape:zoom="1.4725665"
   inkscape:cx="255.99939"
   inkscape:cy="255.99999"
   inkscape:window-x="-8"
   inkscape:window-y="-8"
   inkscape:window-maximized="1"
   inkscape:current-layer="Layer_1" />















<path
   style="fill:#16ffea;fill-opacity:0.33668345;stroke:none;stroke-width:1px;stroke-linecap:butt;stroke-linejoin:miter;stroke-opacity:1"
   d="m 69.26682,71.272878 3.395433,194.218732 c 0,0 -86.243983,84.20672 -59.080523,92.35576 27.16346,8.14904 52.289656,56.36418 52.289656,56.36418 l 1.358175,25.12619 122.914649,3.39544 2.71635,-98.46754 25.80528,29.20071 25.02253,10.64114 66.65415,-43.91636 180.637,0.67908 2.71635,-271.634591 z"
   id="path4189"
   inkscape:connector-curvature="0"
   sodipodi:nodetypes="ccscccccccccc" /><path
   style="fill:#15ffea;fill-opacity:0.33725491;stroke:none;stroke-width:0.79487181px;stroke-linecap:butt;stroke-linejoin:miter;stroke-opacity:1"
   d="m 144.06106,231.02727 c 0,0 44.72498,-0.14975 44.72498,-42.25311 0,-42.10336 -43.72272,-42.10336 -43.72272,-42.10336 0,0 -40.484,2.15915 -40.484,42.64314 0,40.48401 39.48174,41.71333 39.48174,41.71333 z"
   id="path4183"
   inkscape:connector-curvature="0" /><path
   style="fill:#0000ff;stroke-width:0.56944448;stroke:#000099;stroke-opacity:1"
   d="m 68.83652,450.31455 c -3.724342,-1.31551 -8.154768,-5.9304 -9.721681,-10.12658 -1.200023,-3.21359 -1.254019,-3.97888 -0.908624,-12.8775 0.365182,-9.40835 0.360006,-9.46566 -0.932092,-10.32436 -1.293529,-0.85967 -17.326711,-13.37338 -31.539861,-24.61652 -8.159047,-6.45413 -11.66974,-10.5054 -14.830973,-17.1146 C 7.2237101,367.56207 6.3008471,357.98942 8.4295158,349.59506 10.431802,341.6991 10.77097,341.1655 33.569511,310.0411 c 2.397228,-3.27268 9.764415,-13.33284 16.371527,-22.3559 l 12.012931,-16.40559 v -98.17375 c 0,-97.31615 0.01012,-98.200781 1.157879,-101.268452 1.46768,-3.922726 4.74294,-7.660423 8.308129,-9.481169 l 2.777049,-1.418237 208.405154,-0.144666 c 232.66056,-0.161501 211.26889,-0.55189 216.38206,3.948907 1.4491,1.275539 3.32728,3.632023 4.17376,5.236631 l 1.539,2.917461 v 132.111115 132.1111 l -1.52174,2.88336 c -1.81861,3.44588 -5.33398,6.75847 -8.94326,8.42734 l -2.6322,1.2171 -91.88204,0.1508 -91.88205,0.1508 -5.77767,4.50458 c -3.17772,2.47751 -12.05581,9.42458 -19.72907,15.43791 -19.29716,15.12268 -20.2654,15.82544 -24.78717,17.99131 -10.88359,5.21315 -24.95264,4.85064 -36.06226,-0.92925 -5.78981,-3.01217 -10.00147,-6.83679 -15.30639,-13.89968 -2.37688,-3.16452 -4.40793,-5.86048 -4.51345,-5.991 -0.67345,-0.83289 -0.66069,3.11451 0.0892,27.6106 1.13699,37.13921 1.14083,42.64589 0.0319,45.75079 -1.36586,3.82445 -4.40546,7.13195 -8.3791,9.11763 l -3.50472,1.7513 -59.27364,-0.0449 C 78.471644,451.20749 71.047825,451.0956 68.83652,450.31455 Z M 185.5196,433.81102 c 0.33125,-0.30532 0.33489,-0.1725 -1.44519,-52.7084 -1.27777,-37.71116 -1.31438,-41.03861 -0.47455,-43.13755 1.60074,-4.00066 6.4962,-6.81136 10.30152,-5.91457 3.66614,0.86398 5.56062,2.88823 17.20685,18.38531 6.49937,8.64844 12.8188,16.69533 14.04319,17.88202 6.32199,6.12728 17.20093,7.63519 25.33763,3.51204 2.33922,-1.18541 15.03254,-10.9485 49.4927,-38.06743 5.5737,-4.38632 10.64287,-8.84449 11.50287,-10.11641 4.1521,-6.14088 1.63091,-14.55003 -5.48486,-18.29418 -2.96989,-1.56269 -8.80443,-1.68119 -11.71246,-0.23789 -1.09618,0.54405 -9.16805,6.25801 -17.9375,12.69769 -8.76944,6.43969 -17.61007,12.93014 -19.64583,14.42322 -2.03577,1.49308 -7.10923,5.21884 -11.27436,8.27945 -4.16513,3.06061 -7.65182,5.47051 -7.74819,5.35533 -0.89064,-1.06455 -31.72291,-38.79306 -32.79898,-40.13511 -10.00871,-12.48268 -24.35786,-29.54528 -26.60612,-31.6374 -1.57236,-1.46316 -4.42875,-3.45279 -6.34754,-4.42139 -6.85831,-3.46206 -7.66455,-3.52401 -43.26644,-3.32449 -31.43385,0.17616 -32.33983,0.21212 -35.503736,1.40958 -8.476579,3.20815 -11.732141,6.33471 -23.598353,22.66327 -13.492925,18.567 -27.973036,38.40932 -35.45803,48.58867 -3.529613,4.80017 -6.93348,9.89407 -7.56415,11.31981 -2.5099,5.67405 -2.266018,12.57747 0.646293,18.29402 1.8493,3.63 4.277577,6.08932 11.707105,11.85682 2.81875,2.1882 12.21856,9.51576 20.888463,16.28349 8.669907,6.76774 16.2765,12.57953 16.903539,12.91509 1.628059,0.87133 5.54994,0.75346 7.43928,-0.22358 2.845916,-1.47169 4.595109,-4.0871 4.595109,-6.87066 0,-1.3706 -0.29573,-3.14107 -0.657175,-3.93434 C 87.69924,397.86013 81.07367,391.7024 73.337197,384.9696 59.573258,372.99132 57.1391,370.42993 55.787001,366.50235 c -1.063638,-3.0897 -0.828127,-8.86608 0.486021,-11.92093 1.441962,-3.35192 19.517132,-26.08359 22.136686,-27.8395 4.014925,-2.69124 9.604182,-1.14777 11.874121,3.27901 1.539132,3.00158 1.624967,5.35054 0.284724,7.79134 -0.548089,0.99816 -4.712152,6.4864 -9.253474,12.19612 -4.541318,5.70972 -8.331029,10.5566 -8.421575,10.77087 -0.09055,0.21427 5.546954,5.3818 12.527776,11.48341 6.980827,6.10162 13.642251,12.14596 14.80317,13.43186 8.69547,9.63158 8.01245,25.25993 -1.510303,34.55711 -5.284426,5.15925 -14.126345,8.37472 -20.591883,7.48852 l -2.501628,-0.34286 v 3.74906 3.74911 l 54.809024,-0.41273 c 30.14497,-0.22704 54.93544,-0.52929 55.08994,-0.67172 z M 487.61366,205.00745 V 78.021335 L 283.61022,77.87819 79.606746,77.73504 l -0.07118,87.41051 c -0.03912,48.07578 -0.103213,87.79488 -0.142364,88.26467 -0.09888,1.18655 0.478193,1.08733 5.264306,-0.90513 8.751672,-3.64333 8.85814,-3.65172 46.199232,-3.63778 l 33.88195,0.0126 5.45412,1.49568 c 8.06485,2.21162 14.76977,5.82343 20.39649,10.98718 1.37687,1.26358 13.25475,15.42908 26.39531,31.4789 14.97236,18.28717 24.13581,29.03174 24.54522,28.78039 0.35932,-0.22061 6.03456,-4.36471 12.61164,-9.20915 31.7175,-23.36187 32.41257,-23.8109 38.96353,-25.17087 4.22651,-0.87743 13.911,-0.39749 16.80048,0.83258 1.22994,0.52359 2.42944,0.75391 2.66558,0.51183 0.36157,-0.37068 22.94382,-42.46494 33.3817,-62.22487 1.73712,-3.28855 3.60168,-6.74792 4.14347,-7.6875 0.54179,-0.93959 2.33497,-4.27084 3.98483,-7.40278 4.33319,-8.22573 6.22967,-9.96528 10.86422,-9.96528 4.85676,0 8.91064,4.54115 8.35011,9.35379 -0.18489,1.5874 -3.73585,8.7921 -11.24714,22.81982 -6.03731,11.275 -16.56775,30.97161 -23.40096,43.77025 l -12.42402,23.27025 1.33657,2.63947 c 4.19871,8.2917 4.29797,19.03629 0.2493,26.98519 l -1.08865,2.13738 80.4466,-0.14433 80.44657,-0.14433 z m -344.22914,36.90453 c -22.45495,-1.49418 -41.63223,-17.16495 -47.949792,-39.18232 -1.12636,-3.92548 -1.307149,-5.85507 -1.307149,-13.95138 0,-8.06371 0.182262,-10.02464 1.285521,-13.83096 5.43403,-18.74769 19.29745,-32.47086 37.96885,-37.58473 3.84802,-1.05393 6.07042,-1.25787 13.70396,-1.25757 7.80796,3e-4 9.76269,0.18775 13.66667,1.31056 18.13052,5.21447 31.90891,18.75182 37.03615,36.38825 8.02913,27.6182 -6.89752,56.19194 -34.2389,65.54278 -5.42454,1.8552 -14.15208,2.9655 -20.16531,2.56537 z m 14.91076,-19.37889 c 5.90713,-2.0361 10.20297,-4.83634 14.55258,-9.48609 4.11262,-4.3964 5.9339,-7.44651 7.84385,-13.13618 6.77906,-20.19445 -6.17373,-42.08436 -27.34191,-46.20717 -7.62626,-1.48533 -14.46464,-0.47566 -22.44912,3.31454 -9.76705,4.63638 -17.21142,14.53316 -19.17828,25.4962 -2.10785,11.74893 1.3819,22.69939 9.99817,31.37319 4.86581,4.89831 11.22403,8.46567 17.67784,9.91839 5.59728,1.25993 12.99423,0.76167 18.89687,-1.27288 z m 119.47813,-61.94231 v -8.82639 h 50.96528 50.96528 v 8.82639 8.82639 h -50.96528 -50.96528 z m 126.41667,0 v -8.82639 h 19.93057 19.93053 v 8.82639 8.82639 h -19.93053 -19.93057 z m -123.68327,-37.8672 0.1709,-8.54252 h 24.17285 24.17285 v 8.54166 8.54167 l -24.34375,4.3e-4 -24.34375,4.3e-4 0.1709,-8.54252 z m 73.00272,-8.6e-4 v -8.54166 h 46.40972 46.40974 v 8.54166 8.54167 h -46.40974 -46.40972 z"
   id="path2952"
   inkscape:connector-curvature="0" /><g
   id="g1671">
</g>
<g
   id="g1673">
</g>
<g
   id="g1675">
</g>
<g
   id="g1677">
</g>
<g
   id="g1679">
</g>
<g
   id="g1681">
</g>
<g
   id="g1683">
</g>
<g
   id="g1685">
</g>
<g
   id="g1687">
</g>
<g
   id="g1689">
</g>
<g
   id="g1691">
</g>
<g
   id="g1693">
</g>
<g
   id="g1695">
</g>
<g
   id="g1697">
</g>
<g
   id="g1699">
</g>
<path
   style="opacity:0;fill:#ff0000;fill-opacity:1;fill-rule:nonzero;stroke-width:1.58774102"
   d="m 76.902817,431.18499 c 0,-2.82645 0.93888,-3.39142 5.635941,-3.39142 16.162831,0 28.297892,-17.91214 23.003422,-33.95455 -1.3042,-3.95178 -6.545435,-10.0376 -16.788563,-19.49395 l -14.892391,-13.74849 7.642747,-9.66745 c 10.633933,-13.45105 11.819415,-15.99302 9.506685,-20.38469 -4.611264,-8.7564 -10.359834,-8.0438 -19.212589,2.38161 -13.750734,16.19349 -17.122997,21.86565 -17.132882,28.81756 -0.0088,6.20621 0.76934,7.24983 16.692721,22.38709 9.186088,8.73257 16.69233,16.98485 16.680537,18.3384 -0.03141,3.60507 -3.291513,6.27158 -7.667706,6.27158 -4.830502,0 -49.801735,-34.78703 -52.430871,-40.55735 -4.374267,-9.60047 -2.598642,-15.2713 10.498767,-33.53001 38.79554,-54.08371 44.486036,-61.18694 51.796995,-64.65622 4.457472,-2.11521 11.40565,-2.56537 39.59617,-2.56537 20.29668,0 36.00632,0.68624 38.6597,1.68875 6.7249,2.54085 11.14588,7.24697 41.31,43.97443 l 27.72294,33.75512 5.03027,-3.53205 c 2.76664,-1.94263 15.63347,-11.23794 28.59293,-20.65626 19.01405,-13.81849 24.60773,-17.1242 28.97627,-17.1242 7.14771,0 11.76457,4.67077 11.76457,11.90196 0,5.24226 -1.25833,6.55061 -22.62531,23.52453 -42.02334,33.38333 -43.71981,34.34292 -55.23393,31.24249 -5.3596,-1.44319 -8.15016,-4.09664 -18.83255,-17.90727 -16.99427,-21.97087 -19.68211,-24.36437 -25.18667,-22.42852 -7.81645,2.7489 -8.13574,5.43245 -6.47415,54.4123 0.84002,24.76173 1.12742,45.4212 0.63868,45.90994 -0.48874,0.48874 -24.82482,1.22496 -54.08017,1.63604 l -53.191563,0.74741 z"
   id="path2970"
   inkscape:connector-curvature="0" /><path
   style="opacity:0;fill:#ff0000;fill-opacity:1;fill-rule:nonzero;stroke-width:1.58774102"
   d="m 76.902817,431.18499 c 0,-2.82645 0.93888,-3.39142 5.635941,-3.39142 16.162831,0 28.297892,-17.91214 23.003422,-33.95455 -1.3042,-3.95178 -6.545435,-10.0376 -16.788563,-19.49395 l -14.892391,-13.74849 7.642747,-9.66745 c 10.633933,-13.45105 11.819415,-15.99302 9.506685,-20.38469 -4.611264,-8.7564 -10.359834,-8.0438 -19.212589,2.38161 -13.750734,16.19349 -17.122997,21.86565 -17.132882,28.81756 -0.0088,6.20621 0.76934,7.24983 16.692721,22.38709 9.186088,8.73257 16.69233,16.98485 16.680537,18.3384 -0.03141,3.60507 -3.291513,6.27158 -7.667706,6.27158 -4.830502,0 -49.801735,-34.78703 -52.430871,-40.55735 -4.374267,-9.60047 -2.598642,-15.2713 10.498767,-33.53001 38.79554,-54.08371 44.486036,-61.18694 51.796995,-64.65622 4.457472,-2.11521 11.40565,-2.56537 39.59617,-2.56537 20.29668,0 36.00632,0.68624 38.6597,1.68875 6.7249,2.54085 11.14588,7.24697 41.31,43.97443 l 27.72294,33.75512 5.03027,-3.53205 c 2.76664,-1.94263 15.63347,-11.23794 28.59293,-20.65626 19.01405,-13.81849 24.60773,-17.1242 28.97627,-17.1242 7.14771,0 11.76457,4.67077 11.76457,11.90196 0,5.24226 -1.25833,6.55061 -22.62531,23.52453 -42.02334,33.38333 -43.71981,34.34292 -55.23393,31.24249 -5.3596,-1.44319 -8.15016,-4.09664 -18.83255,-17.90727 -16.99427,-21.97087 -19.68211,-24.36437 -25.18667,-22.42852 -7.81645,2.7489 -8.13574,5.43245 -6.47415,54.4123 0.84002,24.76173 1.12742,45.4212 0.63868,45.90994 -0.48874,0.48874 -24.82482,1.22496 -54.08017,1.63604 l -53.191563,0.74741 z"
   id="path2972"
   inkscape:connector-curvature="0" /><path
   style="opacity:0;fill:#ff0000;fill-opacity:1;fill-rule:nonzero;stroke-width:1.58774102"
   d="m 64.078755,445.38085 c -4.286557,-4.28655 -4.641089,-5.53132 -4.641089,-16.29511 V 417.4317 L 44.884175,406.3383 C 13.850129,382.68256 8.7282327,375.96444 8.6648249,358.83119 8.6178684,346.14326 10.650615,342.45786 38.823433,304.15326 l 23.789715,-32.3452 0.0059,-98.64343 c 0.0057,-94.874371 0.123793,-98.836717 3.09052,-103.702251 1.696522,-2.782354 4.555815,-5.846203 6.353984,-6.808554 2.346567,-1.255844 62.460998,-1.620567 212.972918,-1.292138 l 209.70353,0.45759 4.63255,5.185207 4.63255,5.185208 V 205.41275 338.6358 l -4.88535,4.88537 -4.88537,4.88535 -88.39441,0.0175 c -48.61695,0.01 -90.94676,0.43972 -94.06626,0.95582 -3.9667,0.65624 -12.08123,5.94399 -26.9916,17.5888 -27.12009,21.18044 -31.13898,23.29143 -44.34201,23.29143 -15.14819,0 -21.2072,-3.52318 -36.48116,-21.2129 l -3.42728,-3.96935 0.79534,35.39433 c 0.49098,21.84983 0.18285,37.15135 -0.80522,39.9857 -3.34096,9.58393 -3.19507,9.56413 -70.49595,9.56413 H 68.719844 Z m 51.147165,-10.83844 -38.682344,-0.45514 0.753317,-3.94073 c 0.414322,-2.16739 0.137911,-3.94071 -0.614251,-3.94071 -0.752161,0 -1.367566,2.14345 -1.367566,4.76322 v 4.76323 l 39.296594,-0.36736 39.29658,-0.36735 z m 70.90784,-14.29061 -0.32317,-13.89273 -0.5338,13.03057 -0.5338,13.03059 -11.44802,0.54668 -11.44801,0.54667 12.30499,0.31547 12.30499,0.31549 z m -93.356761,5.16183 c 6.542666,-3.38335 12.850291,-12.32668 13.826361,-19.60387 1.4681,-10.94552 -1.73015,-16.58326 -17.849743,-31.46469 l -14.892391,-13.74849 7.642747,-9.66745 c 10.633933,-13.45104 11.819415,-15.99302 9.506685,-20.38469 -4.611264,-8.75639 -10.359834,-8.0438 -19.212589,2.38161 -13.750734,16.1935 -17.122997,21.86565 -17.132882,28.81756 -0.0089,6.20621 0.76934,7.24983 16.692721,22.38709 9.186088,8.73257 16.69233,16.98485 16.680537,18.3384 -0.03141,3.60508 -3.291513,6.27158 -7.667706,6.27158 -4.830502,0 -49.801735,-34.78702 -52.43087,-40.55735 -4.374268,-9.60047 -2.598643,-15.27131 10.498765,-33.53001 38.795541,-54.08371 44.486037,-61.18693 51.796996,-64.65621 7.271248,-3.45045 71.16117,-3.79118 79.2235,-0.42253 6.25259,2.6125 14.40416,11.45568 43.10266,46.75954 12.17453,14.97667 22.41133,26.9545 22.74844,26.61737 0.33712,-0.33712 -12.40425,-16.47543 -28.31414,-35.86292 -22.93362,-27.94645 -30.27867,-35.86379 -35.45037,-38.21242 -5.71864,-2.59701 -10.78924,-2.96673 -41.10764,-2.99729 -38.77193,-0.0391 -41.153262,0.45551 -50.542279,10.4976 -5.773412,6.17498 -46.410382,61.29401 -52.246862,70.86639 -3.988548,6.54161 -4.009214,16.39252 -0.04801,22.889 1.694926,2.77974 13.294483,12.96113 25.776795,22.62531 23.460226,18.16363 28.425447,20.3828 33.732008,15.07624 4.660713,-4.6607 2.86977,-8.75495 -8.214886,-18.7799 C 56.81367,369.08332 56.262187,368.40904 56.262187,361.381 c 0,-5.56555 1.472478,-8.31805 10.717252,-20.0337 11.956683,-15.15238 16.648858,-17.80777 21.305448,-12.05713 1.599181,1.97491 2.907602,4.18209 2.907602,4.90487 0,0.72277 -4.378685,7.12508 -9.730411,14.22735 -5.351725,7.10228 -9.102763,13.44468 -8.33564,14.09423 16.472205,13.94764 28.492532,25.84766 30.201002,29.89872 6.00411,14.23668 -2.32374,30.22517 -17.658826,33.90289 -3.889165,0.93272 -4.105782,1.18104 -1.145177,1.31282 2.008195,0.0894 5.722299,-0.90846 8.253565,-2.21742 z m 91.684651,-57.55728 c -0.29763,-6.76775 -0.54114,-1.2305 -0.54114,12.30499 0,13.53549 0.24351,19.07274 0.54114,12.305 0.29762,-6.76775 0.29762,-17.84224 0,-24.60999 z m 61.94307,6.06484 c 4.97354,-1.4264 46.53514,-32.53294 60.3236,-45.14888 5.51763,-5.04843 6.7479,-7.20409 6.7479,-11.82356 0,-8.09892 -5.07572,-13.01295 -13.37562,-12.94953 -5.75019,0.044 -9.4677,2.25153 -33.36804,19.8152 -14.79329,10.87116 -27.65399,20.03938 -28.57934,20.37381 -0.92534,0.33444 -1.30868,1.02011 -0.85187,1.52371 0.45682,0.50358 13.5805,-8.32964 29.16375,-19.6294 23.03017,-16.6997 29.33817,-20.54502 33.70279,-20.54502 7.10166,0 11.72059,4.69039 11.72059,11.90196 0,5.24226 -1.25833,6.5506 -22.62531,23.52452 -42.02334,33.38334 -43.71981,34.34294 -55.23393,31.24251 -5.37752,-1.44802 -8.15132,-4.10288 -19.08633,-18.26793 -7.03692,-9.11554 -13.6457,-17.08441 -14.68616,-17.70862 -1.42235,-0.85331 -1.45217,-0.56685 -0.12019,1.15453 0.97438,1.2592 6.43055,8.36257 12.12486,15.78526 12.16748,15.86067 15.1721,18.77141 21.26018,20.59584 6.15299,1.84389 6.96228,1.85367 12.88309,0.1556 z m -63.58805,-30.65631 c -0.37977,-1.97501 -0.70493,-0.733 -0.72255,2.76003 -0.0176,3.49303 0.29311,5.10896 0.69051,3.59093 0.39739,-1.51802 0.41181,-4.37595 0.0321,-6.35096 z m 6.77819,-7.56028 c 2.45358,0 4.85112,-1.01651 5.32787,-2.2589 0.65436,-1.70522 -0.16755,-2.07132 -3.35323,-1.49365 -4.91171,0.89066 -8.34115,3.38276 -8.16269,5.93162 0.0788,1.1249 0.42299,1.05265 0.92618,-0.1944 0.44046,-1.09157 2.8083,-1.98467 5.26187,-1.98467 z M 488.12773,204.71597 V 76.902816 H 283.30914 78.490558 v 88.913494 c 0,49.69292 0.612312,88.9135 1.388119,88.9135 0.763467,0 4.425714,-1.07173 8.138327,-2.38162 5.24518,-1.8506 14.840606,-2.38161 43.036496,-2.38161 50.98789,0 48.19948,-1.39132 84.17831,42.0022 13.42796,16.19524 25.19732,29.44596 26.15418,29.44602 0.95683,8e-5 11.58122,-7.15261 23.60972,-15.89486 12.0285,-8.74224 23.59651,-16.32831 25.70669,-16.85792 2.11015,-0.52962 8.04198,-0.65877 13.18182,-0.28698 l 9.34517,0.67596 21.74391,-40.57977 c 11.95915,-22.31889 22.84269,-41.83013 24.18561,-43.35833 4.64653,-5.28755 13.06373,-2.56633 13.06373,4.22341 0,1.75526 -10.439,22.7968 -23.19779,46.75897 -23.0461,43.28274 -23.18513,43.60588 -21.26413,49.42655 1.96254,5.94657 1.59326,19.16365 -0.67695,24.22874 -1.17709,2.62623 3.20274,2.77854 79.8993,2.77854 h 81.14466 z"
   id="path2974"
   inkscape:connector-curvature="0" /><path
   style="opacity:0;fill:#ff0000;fill-opacity:1;fill-rule:nonzero;stroke-width:1.58774102"
   d="m 134.10894,221.20848 c -12.13435,-4.84278 -22.2448,-19.55518 -22.2448,-32.36992 0,-3.49303 1.70234,-10.007 3.78298,-14.47549 10.76678,-23.12325 41.6274,-27.2446 57.72976,-7.70964 18.88039,22.90518 2.88369,56.56619 -26.71781,56.22092 -4.74553,-0.0554 -10.39308,-0.805 -12.55013,-1.66587 z"
   id="path2976"
   inkscape:connector-curvature="0" /><path
   style="opacity:0;fill:#ff0000;fill-opacity:1;fill-rule:nonzero;stroke-width:1.58774102"
   d="m 128.02557,237.84877 c -9.71355,-3.54289 -24.49129,-17.76492 -29.04839,-27.95603 -5.477741,-12.24996 -5.346694,-30.50327 0.305041,-42.48869 4.976459,-10.55338 14.855339,-20.73251 24.943419,-25.70152 10.79065,-5.31508 34.28326,-5.3159 45.07229,-0.002 10.36625,5.10607 19.88948,14.85928 24.85613,25.4564 6.00134,12.80477 6.00134,30.55767 0,43.36243 -4.9692,10.60256 -14.49651,20.3568 -24.85613,25.44819 -9.55152,4.69423 -30.89245,5.66675 -41.27236,1.88081 z m 33.82139,-16.30251 c 22.01164,-10.213 28.20312,-38.3629 12.30764,-55.95731 -8.04202,-8.90155 -15.7933,-12.48194 -26.93099,-12.4397 -25.07496,0.0951 -42.20552,22.63697 -35.13557,46.23438 2.46205,8.21759 11.57496,18.58329 19.50323,22.18442 8.40083,3.81577 22.00588,3.80597 30.25569,-0.0218 z"
   id="path2978"
   inkscape:connector-curvature="0" /><path
   style="opacity:0;fill:#808000;fill-opacity:1;fill-rule:nonzero;stroke-width:1.58774102"
   d="m 128.02557,237.84877 c -9.71355,-3.54289 -24.49129,-17.76492 -29.04839,-27.95603 -5.477741,-12.24996 -5.346694,-30.50327 0.305041,-42.48869 4.976459,-10.55338 14.855339,-20.73251 24.943419,-25.70152 10.79065,-5.31508 34.28326,-5.3159 45.07229,-0.002 10.36625,5.10607 19.88948,14.85928 24.85613,25.4564 6.00134,12.80477 6.00134,30.55767 0,43.36243 -4.9692,10.60256 -14.49651,20.3568 -24.85613,25.44819 -9.55152,4.69423 -30.89245,5.66675 -41.27236,1.88081 z m 33.82139,-16.30251 c 22.01164,-10.213 28.20312,-38.3629 12.30764,-55.95731 -8.04202,-8.90155 -15.7933,-12.48194 -26.93099,-12.4397 -25.07496,0.0951 -42.20552,22.63697 -35.13557,46.23438 2.46205,8.21759 11.57496,18.58329 19.50323,22.18442 8.40083,3.81577 22.00588,3.80597 30.25569,-0.0218 z"
   id="path2980"
   inkscape:connector-curvature="0" /><path
   style="opacity:0;fill:#808000;fill-opacity:1;fill-rule:nonzero;stroke-width:1.58774102"
   d="m 76.902817,431.18499 c 0,-2.82645 0.93888,-3.39142 5.635941,-3.39142 16.162831,0 28.297892,-17.91214 23.003422,-33.95455 -1.3042,-3.95178 -6.545435,-10.0376 -16.788563,-19.49395 l -14.892391,-13.74849 7.642747,-9.66745 c 10.633933,-13.45105 11.819415,-15.99302 9.506685,-20.38469 -4.611264,-8.7564 -10.359834,-8.0438 -19.212589,2.38161 -13.750734,16.19349 -17.122997,21.86565 -17.132882,28.81756 -0.0088,6.20621 0.76934,7.24983 16.692721,22.38709 9.186088,8.73257 16.69233,16.98485 16.680537,18.3384 -0.03141,3.60507 -3.291513,6.27158 -7.667706,6.27158 -4.830502,0 -49.801735,-34.78703 -52.430871,-40.55735 -4.374267,-9.60047 -2.598642,-15.2713 10.498767,-33.53001 38.79554,-54.08371 44.486036,-61.18694 51.796995,-64.65622 4.457472,-2.11521 11.40565,-2.56537 39.59617,-2.56537 20.29668,0 36.00632,0.68624 38.6597,1.68875 6.7249,2.54085 11.14588,7.24697 41.31,43.97443 l 27.72294,33.75512 5.03027,-3.53205 c 2.76664,-1.94263 15.63347,-11.23794 28.59293,-20.65626 19.01405,-13.81849 24.60773,-17.1242 28.97627,-17.1242 7.14771,0 11.76457,4.67077 11.76457,11.90196 0,5.24226 -1.25833,6.55061 -22.62531,23.52453 -42.02334,33.38333 -43.71981,34.34292 -55.23393,31.24249 -5.3596,-1.44319 -8.15016,-4.09664 -18.83255,-17.90727 -16.99427,-21.97087 -19.68211,-24.36437 -25.18667,-22.42852 -7.81645,2.7489 -8.13574,5.43245 -6.47415,54.4123 0.84002,24.76173 1.12742,45.4212 0.63868,45.90994 -0.48874,0.48874 -24.82482,1.22496 -54.08017,1.63604 l -53.191563,0.74741 z"
   id="path2982"
   inkscape:connector-curvature="0" /><path
   style="opacity:0;fill:#808000;fill-opacity:1;fill-rule:nonzero;stroke-width:1.58774102"
   d="m 76.902817,431.18499 c 0,-2.82645 0.93888,-3.39142 5.635941,-3.39142 16.162831,0 28.297892,-17.91214 23.003422,-33.95455 -1.3042,-3.95178 -6.545435,-10.0376 -16.788563,-19.49395 l -14.892391,-13.74849 7.642747,-9.66745 c 10.633933,-13.45105 11.819415,-15.99302 9.506685,-20.38469 -4.611264,-8.7564 -10.359834,-8.0438 -19.212589,2.38161 -13.750734,16.19349 -17.122997,21.86565 -17.132882,28.81756 -0.0088,6.20621 0.76934,7.24983 16.692721,22.38709 9.186088,8.73257 16.69233,16.98485 16.680537,18.3384 -0.03141,3.60507 -3.291513,6.27158 -7.667706,6.27158 -4.830502,0 -49.801735,-34.78703 -52.430871,-40.55735 -4.374267,-9.60047 -2.598642,-15.2713 10.498767,-33.53001 38.79554,-54.08371 44.486036,-61.18694 51.796995,-64.65622 4.457472,-2.11521 11.40565,-2.56537 39.59617,-2.56537 20.29668,0 36.00632,0.68624 38.6597,1.68875 6.7249,2.54085 11.14588,7.24697 41.31,43.97443 l 27.72294,33.75512 5.03027,-3.53205 c 2.76664,-1.94263 15.63347,-11.23794 28.59293,-20.65626 19.01405,-13.81849 24.60773,-17.1242 28.97627,-17.1242 7.14771,0 11.76457,4.67077 11.76457,11.90196 0,5.24226 -1.25833,6.55061 -22.62531,23.52453 -42.02334,33.38333 -43.71981,34.34292 -55.23393,31.24249 -5.3596,-1.44319 -8.15016,-4.09664 -18.83255,-17.90727 -16.99427,-21.97087 -19.68211,-24.36437 -25.18667,-22.42852 -7.81645,2.7489 -8.13574,5.43245 -6.47415,54.4123 0.84002,24.76173 1.12742,45.4212 0.63868,45.90994 -0.48874,0.48874 -24.82482,1.22496 -54.08017,1.63604 l -53.191563,0.74741 z"
   id="path2984"
   inkscape:connector-curvature="0" /></svg>